<?xml version="1.0" encoding="UTF-8" ?>
<!DOCTYPE svg PUBLIC "-//W3C//DTD SVG 1.1//EN" "http://www.w3.org/Graphics/SVG/1.1/DTD/svg11.dtd">
<svg width="400pt" height="400pt" viewBox="0 0 400 400" version="1.1" xmlns="http://www.w3.org/2000/svg">
<g id="#f2210dff">
<path fill="#f2210d" opacity="1.00" d=" M 188.12 50.46 C 190.42 54.06 192.29 57.91 194.19 61.73 C 195.81 62.20 197.42 62.67 199.04 63.14 C 198.83 63.50 198.42 64.22 198.21 64.58 C 198.91 66.00 199.60 67.42 200.29 68.84 C 201.05 68.53 201.82 68.23 202.58 67.93 C 204.04 71.00 205.55 74.06 207.09 77.10 C 207.54 76.79 208.43 76.17 208.88 75.86 C 210.22 78.99 211.59 82.11 213.03 85.20 C 214.05 84.35 215.07 83.51 216.09 82.67 C 216.95 89.13 219.26 95.25 222.33 100.97 C 222.77 100.65 223.64 100.00 224.08 99.68 C 227.67 102.27 228.03 106.91 229.99 110.60 C 231.47 110.93 232.93 111.30 234.41 111.68 C 235.90 115.47 236.01 119.58 236.29 123.59 C 237.90 125.01 239.93 126.23 240.67 128.38 C 242.24 133.08 242.29 138.14 242.05 143.04 C 241.84 146.86 239.81 150.21 238.92 153.87 C 237.53 158.95 237.99 164.28 238.26 169.48 C 241.92 163.86 244.49 157.63 247.77 151.80 C 251.92 143.80 257.81 136.79 261.25 128.40 C 262.23 126.06 264.37 124.88 266.81 124.56 C 269.62 121.78 272.20 118.79 274.93 115.94 C 275.52 117.31 276.99 118.26 278.17 116.92 C 281.99 113.27 284.33 108.44 287.11 104.03 C 287.97 104.39 288.82 104.76 289.68 105.13 C 291.19 102.54 292.68 99.95 294.22 97.39 C 294.57 98.11 295.25 99.54 295.60 100.26 C 296.37 97.74 297.16 95.22 297.97 92.72 C 298.94 93.10 299.92 93.49 300.90 93.88 C 301.45 93.22 302.01 92.56 302.57 91.90 C 304.99 96.66 307.62 101.42 308.46 106.77 C 308.80 107.10 309.50 107.75 309.85 108.07 C 308.95 110.28 308.09 112.50 307.31 114.75 C 309.02 120.02 305.10 124.52 302.91 128.95 C 303.58 129.04 304.94 129.23 305.61 129.32 C 304.01 133.14 301.80 136.65 299.12 139.80 C 299.76 141.15 300.71 142.41 300.93 143.93 C 299.81 146.33 297.96 148.27 296.30 150.31 C 293.30 153.80 291.48 158.09 288.83 161.82 C 285.68 166.25 282.17 170.62 277.44 173.45 C 270.71 177.66 263.95 181.86 257.65 186.72 C 266.32 185.37 275.17 186.62 283.80 184.86 C 284.09 185.33 284.66 186.25 284.95 186.72 C 289.38 185.19 294.75 183.63 298.93 186.65 C 301.68 186.62 304.44 186.43 307.18 186.19 C 308.32 186.79 309.45 187.39 310.59 187.99 C 309.15 189.19 307.70 190.37 306.24 191.52 C 306.13 192.60 306.03 193.69 305.93 194.77 C 304.25 195.88 302.58 197.00 300.92 198.13 C 301.24 198.61 301.88 199.56 302.21 200.04 C 299.52 201.16 296.81 202.23 294.09 203.29 C 294.07 203.96 294.03 205.30 294.01 205.97 C 292.05 206.43 290.08 206.88 288.11 207.31 C 288.06 207.91 287.95 209.10 287.90 209.69 C 281.12 211.92 275.32 216.29 268.56 218.57 C 257.56 221.03 246.45 214.68 235.53 218.13 C 247.89 226.28 260.34 234.31 272.85 242.22 C 278.92 246.09 284.68 250.46 290.99 253.95 C 293.85 255.53 296.65 257.35 298.58 260.06 C 292.06 258.49 286.65 254.39 280.97 251.05 C 275.61 247.84 270.61 244.08 265.40 240.64 C 261.18 237.85 256.74 235.38 252.68 232.35 C 246.50 227.70 239.72 223.90 233.67 219.07 C 233.91 223.44 235.37 227.60 237.72 231.28 C 241.14 236.57 242.27 242.83 244.46 248.64 C 246.42 253.18 244.97 258.16 244.83 262.89 C 244.39 263.21 243.53 263.85 243.09 264.16 C 243.68 267.60 243.99 271.07 244.04 274.55 C 241.84 276.87 239.70 279.23 237.39 281.44 C 236.95 283.65 236.47 285.86 235.97 288.06 C 234.72 288.02 233.47 287.98 232.22 287.95 C 231.80 285.32 231.35 282.71 230.91 280.09 C 230.29 280.02 229.06 279.87 228.44 279.80 C 227.41 278.37 226.36 276.95 225.32 275.55 C 224.64 276.01 223.28 276.95 222.60 277.42 C 222.26 274.33 222.01 271.24 221.78 268.14 C 221.34 267.82 220.45 267.18 220.01 266.86 C 220.01 265.60 220.02 264.34 220.03 263.08 C 219.04 262.64 218.06 262.20 217.07 261.77 C 217.66 258.38 217.96 254.94 217.87 251.51 C 214.30 257.46 212.22 264.30 207.63 269.62 C 205.10 272.74 201.54 274.92 199.39 278.35 C 197.90 280.66 196.58 283.06 195.19 285.43 C 194.17 284.58 193.14 283.73 192.12 282.89 C 191.95 282.00 191.60 280.23 191.42 279.34 C 188.30 284.49 185.23 289.77 180.80 293.94 C 180.14 293.99 178.81 294.10 178.15 294.15 C 177.98 293.19 177.65 291.28 177.48 290.33 C 174.75 293.38 172.16 296.57 169.87 299.97 C 169.16 299.99 167.74 300.04 167.04 300.07 C 166.99 298.62 166.94 297.17 166.89 295.73 C 162.14 300.14 158.09 305.42 152.31 308.59 C 152.11 306.92 151.93 305.24 151.74 303.57 C 148.74 307.28 145.64 310.92 142.26 314.29 C 141.23 313.79 140.21 313.29 139.19 312.81 C 136.97 314.79 134.70 316.73 132.40 318.63 C 131.75 317.28 131.10 315.94 130.46 314.60 C 127.45 316.29 124.23 318.00 120.64 317.48 C 121.31 314.94 121.99 312.40 122.58 309.84 C 122.24 309.33 121.57 308.31 121.23 307.80 C 123.01 304.74 125.94 302.61 128.35 300.09 C 127.49 299.09 126.64 298.09 125.79 297.10 C 129.60 295.13 133.45 293.22 137.40 291.51 C 136.47 290.73 135.55 289.96 134.63 289.20 C 137.45 285.69 141.03 282.91 144.99 280.79 C 144.58 279.24 144.17 277.69 143.77 276.15 C 146.94 274.12 150.22 272.27 153.46 270.34 C 152.57 270.23 150.79 269.99 149.90 269.87 C 149.94 269.21 150.03 267.88 150.08 267.22 C 154.78 264.06 159.35 260.72 164.55 258.40 C 162.21 258.17 159.88 257.96 157.55 257.73 C 161.87 251.43 165.90 244.77 171.75 239.75 C 179.12 233.70 185.59 226.66 193.13 220.80 C 187.06 222.27 181.24 224.58 175.24 226.27 C 163.95 229.51 152.49 232.24 140.84 233.83 C 131.82 234.40 122.49 234.21 113.86 231.26 C 113.94 228.92 114.01 226.57 114.09 224.23 C 110.17 225.37 106.13 226.06 102.06 226.28 C 101.63 225.17 101.21 224.05 100.79 222.93 C 99.51 223.72 98.23 224.51 96.95 225.30 C 96.16 224.53 95.36 223.76 94.57 223.00 C 95.07 221.99 95.56 221.00 96.06 220.00 C 91.34 220.19 86.59 220.08 81.95 219.15 C 81.94 218.43 81.92 217.00 81.92 216.29 C 78.87 215.67 75.84 214.97 72.83 214.21 C 73.31 213.20 73.80 212.19 74.28 211.18 C 70.04 211.97 65.72 212.19 61.42 211.95 C 60.14 210.47 59.13 208.48 57.11 207.92 C 53.46 206.64 49.73 205.53 46.33 203.64 C 51.39 202.38 56.60 202.22 61.76 201.73 C 64.06 201.61 65.18 199.32 66.60 197.86 C 70.13 198.27 73.59 199.08 76.99 200.08 C 76.61 199.00 76.22 197.92 75.85 196.84 C 79.53 197.13 83.20 197.65 86.86 198.15 C 87.59 196.42 88.31 194.69 89.05 192.96 C 93.11 193.83 97.27 194.10 101.42 193.95 C 100.04 192.78 98.64 191.64 97.22 190.52 C 97.17 189.86 97.05 188.53 97.00 187.87 C 99.08 188.08 101.16 188.28 103.24 188.45 C 103.77 188.15 104.83 187.53 105.36 187.22 C 109.60 188.05 113.56 189.89 117.69 191.12 C 118.07 189.31 118.45 187.50 118.86 185.70 C 122.30 186.00 125.74 186.37 129.18 186.73 C 137.50 187.55 145.94 186.19 154.21 187.73 C 160.15 188.64 165.42 191.80 171.24 193.16 C 166.45 189.19 160.49 187.11 155.37 183.66 C 146.27 177.80 136.45 172.81 128.55 165.30 C 129.81 164.67 131.08 164.04 132.35 163.42 C 126.92 159.72 120.28 158.15 115.32 153.73 C 117.35 153.00 119.38 152.28 121.42 151.57 C 117.27 148.69 113.14 145.79 109.20 142.63 C 109.98 142.41 111.55 141.99 112.33 141.77 C 110.58 140.10 108.84 138.42 107.09 136.75 C 107.04 135.55 106.99 134.36 106.94 133.16 C 104.89 131.67 102.84 130.20 100.80 128.71 C 101.13 127.50 101.46 126.30 101.80 125.10 C 100.14 123.61 98.50 122.11 96.84 120.63 C 97.16 119.44 97.49 118.26 97.83 117.08 C 95.50 115.35 93.17 113.63 90.86 111.87 C 91.27 111.32 92.08 110.20 92.49 109.65 C 90.65 108.47 88.76 107.36 87.07 105.98 C 85.78 105.18 86.96 103.69 87.77 103.07 C 86.03 98.80 83.70 94.80 81.80 90.61 C 85.21 91.79 88.40 93.51 91.44 95.43 C 95.38 95.91 98.90 97.79 101.44 100.84 C 101.86 100.54 102.69 99.94 103.11 99.65 C 104.83 101.37 106.54 103.10 108.24 104.84 C 109.11 104.48 109.98 104.11 110.85 103.75 C 112.94 105.68 115.03 107.62 117.14 109.53 C 118.11 108.98 119.08 108.44 120.06 107.90 C 122.15 109.06 124.08 110.47 125.94 111.99 C 126.24 111.45 126.85 110.39 127.15 109.86 C 129.79 112.37 132.57 114.75 135.62 116.76 C 139.08 115.53 142.36 117.17 145.21 119.04 C 146.19 118.21 147.18 117.38 148.17 116.55 C 151.35 120.24 154.47 123.99 157.92 127.43 C 157.95 125.91 157.99 124.39 158.02 122.88 C 158.70 122.94 160.07 123.06 160.76 123.11 C 165.69 128.61 171.17 133.60 177.40 137.60 C 187.53 144.29 191.92 156.07 199.23 165.26 C 197.54 159.87 195.02 154.75 193.72 149.23 C 190.92 140.39 188.50 131.31 188.13 122.00 C 188.48 115.92 189.21 109.87 189.76 103.81 C 190.13 99.10 189.57 94.39 189.71 89.68 C 189.88 85.82 188.29 82.16 188.26 78.31 C 188.19 74.83 188.20 71.35 188.47 67.87 C 187.98 66.04 187.57 64.18 187.25 62.31 C 187.57 61.78 188.19 60.71 188.51 60.18 C 188.30 56.94 188.10 53.70 188.12 50.46 M 172.27 193.27 L 172.28 193.73 L 172.74 193.73 L 172.74 193.27 L 172.27 193.27 Z" />
</g>
</svg>
